<?xml version="1.0" standalone="no"?>
<!DOCTYPE svg PUBLIC "-//W3C//DTD SVG 20010904//EN"
 "http://www.w3.org/TR/2001/REC-SVG-20010904/DTD/svg10.dtd">
<svg version="1.0" xmlns="http://www.w3.org/2000/svg"
 width="280.000000pt" height="280.000000pt" viewBox="0 0 280.000000 280.000000"
 preserveAspectRatio="xMidYMid meet">

<g transform="translate(0.000000,280.000000) scale(0.100000,-0.100000)"
fill="#000000" stroke="none">
<path d="M1867 2030 l-89 -108 -36 25 c-51 34 -117 67 -182 89 -77 26 -253 26
-330 0 -209 -71 -362 -220 -433 -425 -26 -73 -31 -104 -35 -212 -4 -104 -1
-140 16 -206 53 -209 190 -385 367 -472 270 -133 598 -36 786 233 l50 71 -106
3 -106 3 -48 -43 c-275 -248 -679 -113 -766 254 -29 123 -16 235 40 353 76
160 235 265 399 265 56 0 75 -6 156 -46 50 -25 94 -52 96 -59 3 -7 -29 -61
-70 -119 -42 -59 -76 -109 -76 -111 0 -3 124 -5 275 -5 151 0 275 2 275 4 0
10 -92 611 -93 612 -1 1 -42 -47 -90 -106z"/>
</g>
</svg>
