<?xml version="1.0" standalone="no"?>
<!DOCTYPE svg PUBLIC "-//W3C//DTD SVG 20010904//EN"
 "http://www.w3.org/TR/2001/REC-SVG-20010904/DTD/svg10.dtd">
<svg version="1.0" xmlns="http://www.w3.org/2000/svg"
 width="560.000000pt" height="560.000000pt" viewBox="0 0 560.000000 560.000000"
 preserveAspectRatio="xMidYMid meet">

<g transform="translate(0.000000,560.000000) scale(0.100000,-0.100000)"
fill="#000000" stroke="none">
<path d="M1602 3668 c-50 -337 -90 -614 -88 -615 1 -2 249 -2 550 -1 l548 3
-156 220 c-85 121 -156 223 -156 228 -1 22 247 156 353 192 63 21 98 26 173
26 398 -1 757 -301 871 -726 23 -88 26 -119 27 -265 1 -143 -2 -177 -23 -254
-82 -312 -282 -561 -545 -681 -131 -59 -185 -70 -351 -69 -120 0 -165 5 -227
22 -158 43 -315 133 -434 247 l-67 65 -214 0 -215 0 28 -47 c53 -93 120 -179
209 -272 528 -548 1290 -561 1799 -31 196 205 325 452 388 744 29 136 32 425
5 560 -117 581 -544 1010 -1087 1092 -295 44 -598 -29 -858 -209 l-78 -53
-180 218 c-98 120 -179 218 -179 218 -1 0 -42 -275 -93 -612z"/>
</g>
</svg>
